# xmcd
#
# Track frame offsets:
#	150
#	31960
#	47749
#	63752
#	76645
#	97149
#	114208
#	129594
#	146810
#	162554
#	175063
#	193841
#	212648
#	231738
#	250765
#	268267
#
# Disc length: 3808 seconds
#
# Revision: 2
# Processed by: cddbd v1.5.2PL0 Copyright (c) Steve Scherf et al.
# Submitted via: audiograbber 1.83.01
#
DISCID=e70ede10
DTITLE=American Idol - Super Country Party Songs 1
DYEAR=2004
DGENRE=Karaoke
TTITLE0=Garth Brooks - Friends In Low Places (Live)
TTITLE1=Brooks and Dunn - Boot Scootin' Boogie
TTITLE2=Billy Ray Cyrus - Achy Breaky Heart
TTITLE3=Shelly West - Jose Cuervo
TTITLE4=Dixie Chicks - Goodbye Earl
TTITLE5=Gretchen Wilson - Redneck Woman
TTITLE6=Tracy Byrd - Ten Rounds With Jose Cuervo
TTITLE7=Martina McBride - When God-Fearin' Women Get The Blues (Radio Version)
TTITLE8=Deana Carter - Did I Shave My Legs For This?
TTITLE9=Johnny Paycheck - Take This Job And Shove It
TTITLE10=Shania Twain - Man! I Feel Like A Woman!
TTITLE11=Toby Keith - I Love This Bar
TTITLE12=Hank Williams, Jr. - Family Tradition
TTITLE13=Alan Jackson and Jimmy Buffett - It's Five O'Clock Somewhere
TTITLE14=Shania Twain - That Don't Impress Me Much
TTITLE15=Kenny Chesney - No Shoes, No Shirt, No Problems
EXTD=American Idol Series Karaoke
EXTT0=
EXTT1=
EXTT2=
EXTT3=
EXTT4=
EXTT5=
EXTT6=
EXTT7=
EXTT8=
EXTT9=
EXTT10=
EXTT11=
EXTT12=
EXTT13=
EXTT14=
EXTT15=
PLAYORDER=
